<?xml version="1.0" encoding="UTF-8" standalone="no"?>
<!DOCTYPE svg PUBLIC "-//W3C//DTD SVG 1.1//EN" "http://www.w3.org/Graphics/SVG/1.1/DTD/svg11.dtd">
<svg width="100%" height="100%" viewBox="0 0 4445 4445" version="1.1" xmlns="http://www.w3.org/2000/svg" xmlns:xlink="http://www.w3.org/1999/xlink" xml:space="preserve" xmlns:serif="http://www.serif.com/" style="fill-rule:evenodd;clip-rule:evenodd;stroke-linejoin:round;stroke-miterlimit:2;">
    <g transform="matrix(5.55556,0,0,5.55556,0,0)">
        <g>
            <path d="M191.797,336.031L26.875,579.609C22.063,587.422 27.031,597.578 36.141,598.578L361.547,633.063L191.797,336.031ZM36.578,492.859L154.219,301.688L34.469,229.844C30.297,227.344 25,230.344 25,235.203L25,489.594C25,495.891 33.266,498.234 36.578,492.859ZM53.516,661.875L357.266,798.844C365.547,802.672 375,796.609 375,787.5L375,684.891L56.953,650.047C50,649.266 47.219,658.781 53.516,661.875ZM180.422,259.094L305.313,35.75C312.094,24.719 299.703,11.922 288.469,18.344L52.828,172.422C48.969,174.953 49.094,180.641 53.031,183.016L180.422,259.094ZM229.359,275L570.641,275L421.297,11.906C416.406,3.969 408.203,0 400,0C391.797,0 383.594,3.969 378.703,11.906L229.359,275ZM765.531,229.844L645.781,301.703L763.422,492.875C766.719,498.25 775,495.906 775,489.594L775,235.203C775,230.344 769.703,227.344 765.531,229.844ZM619.578,259.094L746.969,183C750.922,180.625 751.031,174.938 747.172,172.406L511.531,18.344C500.297,11.922 487.906,24.719 494.687,35.75L619.578,259.094ZM743.047,650.047L425,684.875L425,787.484C425,796.609 434.453,802.656 442.734,798.828L746.484,661.859C752.781,658.781 750,649.266 743.047,650.047ZM608.203,336.031L438.469,633.063L763.875,598.578C772.984,597.563 777.953,587.422 773.141,579.609L608.203,336.031ZM556.922,325L243.078,325L400,599.609L556.922,325Z" style="fill:rgb(39,39,39);fill-rule:nonzero;"/>
            <g transform="matrix(0.196417,0,0,0.202276,323.933,329.772)">
                <path d="M235,446.867L352.8,564.733L305.7,611.867L352.867,659.033L305.733,706.167L223.233,623.667L128.933,717.967L81.8,670.833L176.1,576.5L93.6,494.033L140.733,446.9L187.867,494L234.967,446.867L235,446.867ZM100,100L218.2,100.1L612.1,494.033L659.267,446.9L706.4,494.033L623.933,576.533L718.2,670.833L671.067,717.967L576.767,623.667L494.267,706.167L447.133,659.033L494.267,611.867L100.1,217.7L100,100ZM581.9,100L700,100.1L700.067,217.533L564.967,352.6L447.1,234.767L581.9,100Z" style="fill:rgb(217,217,217);fill-rule:nonzero;"/>
            </g>
            <g transform="matrix(0.0750006,0,0,0.0874998,44.9996,300)">
                <path d="M699.998,-0C681.565,-0 666.665,14.933 666.665,33.333L666.665,66.666L133.337,66.666L133.337,33.333C133.337,14.933 118.436,-0 100.004,-0C81.571,-0 66.671,14.933 66.671,33.333L66.671,299.997C66.671,318.397 81.571,333.33 100.004,333.33C118.436,333.33 133.337,318.397 133.337,299.997L133.337,266.664L166.67,266.664L166.67,766.659C166.67,780.126 174.77,792.292 187.236,797.459C199.702,802.593 214.036,799.759 223.569,790.226L300.002,713.793L376.435,790.226C389.469,803.26 410.535,803.26 423.568,790.226L500.001,713.793L576.435,790.226C582.802,796.593 591.335,799.993 600,799.993C604.3,799.993 608.633,799.16 612.767,797.461C625.235,792.295 633.333,780.127 633.333,766.66L633.333,266.666L666.666,266.666L666.666,299.999C666.666,318.398 681.567,333.332 699.999,333.332C718.432,333.332 733.332,318.398 733.332,299.999L733.332,33.333C733.331,14.933 718.43,-0 699.998,-0ZM466.667,533.328L333.335,533.328C314.902,533.328 300.002,518.395 300.002,499.995C300.002,481.595 314.902,466.662 333.335,466.662L466.667,466.662C485.099,466.662 500,481.595 500,499.995C500,518.395 485.099,533.328 466.667,533.328ZM466.667,399.996L333.335,399.996C314.902,399.996 300.002,385.063 300.002,366.663C300.002,348.263 314.902,333.33 333.335,333.33L466.667,333.33C485.099,333.33 500,348.263 500,366.663C500,385.063 485.099,399.996 466.667,399.996ZM666.665,199.998L133.337,199.998L133.337,133.332L666.665,133.332L666.665,199.998Z" style="fill:rgb(217,217,217);fill-rule:nonzero;stroke:rgb(217,217,217);stroke-width:12.27px;"/>
            </g>
            <g transform="matrix(0.190469,0,0,0.2,536.31,420)">
                <path d="M400,25C317.95,419.75 71.875,459.15 400,735.45C728.15,459.125 482.05,419.75 400,25ZM194.925,261.575C153.9,379.975 71.875,459.55 71.875,577.975C71.875,696.4 235.925,775 359,775C112.9,577.6 194.925,458.925 194.925,261.575ZM605.075,261.575C605.075,458.95 687.125,577.625 441.025,775C564.075,775 728.15,696.4 728.15,577.975C728.15,459.55 646.1,379.975 605.1,261.575L605.075,261.575Z" style="fill:rgb(217,217,217);fill-rule:nonzero;stroke:rgb(217,217,217);stroke-width:5.12px;"/>
            </g>
            <g transform="matrix(0.208333,0,0,0.225,129.167,410)">
                <path d="M500,733.333C390.283,733.333 300,643.05 300,533.333C300,423.617 390.283,333.333 500,333.333C609.717,333.333 700,423.617 700,533.333C700,643.05 609.717,733.333 500,733.333ZM283.333,295.233C384.6,295.233 466.667,244.067 466.667,180.967C466.667,117.867 384.6,66.667 283.333,66.667C182.067,66.667 100,117.833 100,180.967C100,244.1 182.067,295.233 283.333,295.233ZM255.767,426.667C267.145,400.864 282.536,377.024 301.367,356.033C295.367,356.4 289.5,357.133 283.333,357.133C182.067,357.133 100,305.967 100,242.867L100,314.267C100,371.5 167.733,418.3 255.767,426.667ZM237.967,581.867C234.949,565.864 233.398,549.618 233.333,533.333C233.333,525.333 233.833,517.433 234.533,509.6C157.067,496.3 100,452.533 100,400L100,471.433C100,524.733 158.733,569.233 237.967,581.867ZM283.333,733.333C295.357,733.324 307.368,732.578 319.3,731.1C311.047,723.351 303.537,714.847 296.867,705.7C285.053,691.843 274.677,676.821 265.9,660.867C172.933,655.333 100,607.033 100,547.633L100,619.033C100,682.167 182.067,733.333 283.333,733.333Z" style="fill:rgb(217,217,217);fill-rule:nonzero;stroke:rgb(217,217,217);stroke-width:4.61px;"/>
            </g>
            <g transform="matrix(0.125,0,0,0.125,600,115.001)">
                <path d="M340,319.888C318,319.888 300,337.888 300,359.888L300,459.887C300,470.937 291.05,479.887 280,479.887C268.95,479.887 260,470.937 260,459.887L260,364.2C260,342.462 265.9,321.112 277.113,302.463L374.3,140.475C385.662,121.525 379.538,96.962 360.587,85.587C342.525,74.75 319.687,80.212 307.712,97.1C307.462,97.387 306.937,97.362 306.725,97.7L160.15,317.575C146.95,337.375 140,360.388 140,384.113L140,484.4L27.35,521.95C11.056,527.371 -0.006,542.715 0,559.888L0,679.888C0,693.413 10.65,719.888 40,719.888C43.362,719.888 46.762,719.463 50.075,718.6L274.063,660.325C336.45,642.487 380,584.75 380,519.888L380,359.888C380,337.888 362,319.888 340,319.888ZM772.65,522.05L660,484.5L660,384.212C660,360.488 653.05,337.475 639.85,317.675L493.275,97.813C493.05,97.475 492.538,97.513 492.287,97.213C480.313,80.325 457.475,74.863 439.412,85.7C420.462,97.063 414.337,121.638 425.7,140.588L522.887,302.575C534.1,321.225 540,342.575 540,364.313L540,460C540,471.05 531.05,480 520,480C508.95,480 500,471.05 500,460L500,360C500,338 482,320 460,320C438,320 420,338 420,360L420,520C420,584.863 463.55,642.6 525.937,660.425L749.925,718.7C753.25,719.563 756.65,719.987 760,719.987C789.35,719.987 800,693.513 800,679.987L800,559.988C800,542.775 788.987,527.5 772.65,522.05Z" style="fill:rgb(217,217,217);fill-rule:nonzero;"/>
            </g>
            <g transform="matrix(0.1,0,0,0.1,685,295)">
                <path d="M475,150L325,150L300,50L500,50L475,150ZM650,400L650,750L150,750L150,400C150,344.775 194.775,300 250,300L300,300L300,200L275,200L275,175L525,175L525,200L500,200L500,300L550,300C605.225,300 650,344.775 650,400ZM325,500C325,541.425 400,575 400,575C400,575 475,541.425 475,500C475,458.575 441.425,425 400,425C358.575,425 325,458.575 325,500ZM427.95,625L505.575,586.175L494.4,563.8L400,611.025L305.6,563.825L294.425,586.2L372.05,625L294.425,663.825L305.6,686.2L400,638.975L494.4,686.175L505.575,663.8L427.95,625Z" style="fill:rgb(217,217,217);fill-rule:nonzero;stroke:rgb(217,217,217);stroke-width:10px;"/>
            </g>
            <g transform="matrix(0.133574,0,0,0.133574,106.744,121.35)">
                <path d="M758.075,507.525L773.025,416.9L740.125,411.475C741.075,382.1 738.125,353.275 731.7,325.6L762.7,313.925L730.35,227.95L698.825,239.825C684.95,214.7 667.9,191.425 648.125,170.6L670.25,143.65L599.25,85.375L576.3,113.35C552.275,99.125 526.175,87.775 498.4,79.825L504.6,42.275L413.975,27.325L407.45,66.8C379.375,66.65 351.875,70.05 325.45,76.625L310.725,37.525L224.75,69.875L240.175,110.875C216.75,124.275 195,140.45 175.45,159.05L140.425,130.3L82.15,201.3L118.2,230.9C104.875,253.4 94.075,277.725 86.225,303.55L39.325,295.8L24.375,386.425L71.75,394.25C71.175,421.125 73.825,447.525 79.45,472.975L34.375,489.95L66.725,575.925L111.4,559.125C124,582.55 139.325,604.425 157.075,624.25L127.5,660.3L198.5,718.575L227.125,683.675C249.575,697.9 273.95,709.55 299.925,718.2L292.85,761.075L383.475,776.025L390.225,735.05C418.375,736.425 446.05,734.2 472.75,728.75L486.7,765.85L572.675,733.5L559.375,698.175C584.525,685.15 607.95,668.975 629.025,650.125L657,673.075L715.275,602.075L688.475,580.075C703.65,556.125 715.925,530 724.725,502.05L758.1,507.55L758.075,507.525ZM648.075,547.025C645.075,551.95 641.95,556.775 638.7,561.475C638.675,561.5 638.65,561.55 638.625,561.575C637.65,562.975 636.65,564.375 635.65,565.775C635.45,566.05 635.25,566.325 635.05,566.6C634.075,567.925 633.1,569.25 632.1,570.575C631.9,570.85 631.675,571.125 631.45,571.425C630.425,572.775 629.4,574.125 628.35,575.45C628.275,575.55 628.175,575.675 628.1,575.775C623.475,581.625 618.625,587.275 613.55,592.725C613.425,592.85 613.3,593 613.175,593.15C612,594.4 610.825,595.65 609.625,596.875C609.425,597.075 609.225,597.275 609.05,597.475C607.85,598.7 606.625,599.95 605.4,601.15C605.275,601.25 605.175,601.375 605.075,601.475C599.7,606.775 594.125,611.875 588.375,616.725C573.7,629.1 557.8,639.95 540.925,649.15C536.125,651.75 531.25,654.225 526.325,656.55C526,656.7 525.675,656.875 525.35,657.025C523.925,657.675 522.5,658.325 521.075,658.975C520.65,659.15 520.225,659.35 519.825,659.525C518.4,660.15 516.95,660.775 515.5,661.4C515.15,661.55 514.8,661.7 514.45,661.825C505.925,665.375 497.225,668.525 488.35,671.225C488.175,671.275 488.025,671.325 487.85,671.375C486.125,671.9 484.4,672.4 482.65,672.9C482.525,672.925 482.4,672.975 482.275,673C473.075,675.6 463.7,677.725 454.175,679.375C436.125,682.5 417.575,683.9 398.75,683.425C394.175,683.3 389.6,683.075 385,682.75C384.5,682.7 384,682.675 383.5,682.625C382.225,682.525 380.925,682.425 379.625,682.3C378.45,682.2 377.25,682.075 376.075,681.95C374.8,681.825 373.525,681.675 372.25,681.525C370.8,681.35 369.35,681.175 367.925,680.975C367.2,680.875 366.475,680.775 365.75,680.675C363.775,680.4 361.8,680.1 359.825,679.775C359.725,679.75 359.6,679.75 359.5,679.725C359.05,679.65 358.625,679.575 358.175,679.5C356.325,679.2 354.5,678.875 352.675,678.525C351.55,678.3 350.425,678.075 349.3,677.85C348.175,677.625 347.05,677.4 345.95,677.175C344.575,676.875 343.225,676.575 341.85,676.25C341.025,676.05 340.175,675.875 339.35,675.675C337.8,675.3 336.275,674.925 334.75,674.525C334.15,674.375 333.525,674.225 332.925,674.05C331.25,673.6 329.55,673.15 327.9,672.675C327.475,672.55 327.05,672.425 326.625,672.325C324.825,671.8 323,671.25 321.225,670.7C320.975,670.625 320.725,670.55 320.475,670.475C318.55,669.875 316.625,669.25 314.725,668.6C314.65,668.575 314.575,668.55 314.5,668.525C312.475,667.85 310.475,667.15 308.5,666.425C291.5,660.25 275.35,652.525 260.175,643.45C259.875,643.275 259.575,643.075 259.275,642.9C257.775,642 256.3,641.1 254.825,640.15C254.1,639.7 253.375,639.225 252.625,638.75C251.575,638.075 250.5,637.375 249.45,636.7C248.65,636.175 247.85,635.625 247.025,635.075C246.075,634.425 245.125,633.8 244.2,633.15C243.35,632.575 242.5,631.975 241.675,631.375C240.8,630.75 239.95,630.125 239.1,629.5C238.25,628.875 237.35,628.225 236.475,627.575C235.725,627 234.975,626.45 234.225,625.875C230.575,623.1 227,620.25 223.5,617.3C223.1,616.975 222.7,616.625 222.3,616.3C221.15,615.325 220.025,614.35 218.9,613.35C218.5,613 218.125,612.675 217.725,612.325C216.575,611.3 215.425,610.25 214.275,609.2C213.975,608.925 213.7,608.675 213.425,608.4C212.175,607.25 210.95,606.1 209.725,604.925L209.7,604.9C202.8,598.275 196.25,591.325 190.05,584.05C178.625,570.65 168.475,556.225 159.7,540.95C155.975,534.475 152.525,527.85 149.325,521.075C149.2,520.825 149.1,520.575 148.975,520.35C148.25,518.825 147.55,517.3 146.875,515.775C146.75,515.5 146.625,515.225 146.525,514.95C145.825,513.375 145.125,511.775 144.45,510.175C144.425,510.1 144.4,510.025 144.35,509.95C141.425,503.025 138.775,495.95 136.4,488.775C136.35,488.65 136.325,488.55 136.275,488.425C135.725,486.75 135.175,485.05 134.675,483.35C134.6,483.125 134.55,482.9 134.475,482.675C133.95,480.975 133.45,479.275 132.95,477.55C132.925,477.45 132.9,477.35 132.875,477.25C130.8,469.9 129,462.425 127.5,454.875C124.15,437.825 122.325,420.325 122.2,402.525C122.15,396.95 122.3,391.375 122.575,385.75C122.6,385.2 122.625,384.65 122.65,384.1C122.725,382.75 122.825,381.4 122.925,380.025C123,379.1 123.05,378.2 123.125,377.3C123.225,376.125 123.325,374.925 123.45,373.725C123.55,372.6 123.675,371.475 123.8,370.325C123.9,369.3 124.025,368.25 124.15,367.225C124.325,365.85 124.5,364.45 124.675,363.05C124.775,362.225 124.875,361.425 125,360.6C125.325,358.375 125.65,356.125 126.025,353.9C126.375,351.725 126.775,349.575 127.175,347.425C127.3,346.775 127.425,346.125 127.55,345.5C127.85,343.925 128.175,342.35 128.525,340.8C128.65,340.15 128.8,339.5 128.95,338.875C129.4,336.825 129.875,334.775 130.375,332.725C130.4,332.65 130.4,332.6 130.425,332.525C130.925,330.425 131.475,328.35 132.025,326.275C132.2,325.65 132.375,325.025 132.55,324.4C132.975,322.875 133.4,321.375 133.85,319.875C134.025,319.25 134.225,318.6 134.4,317.975C134.975,316.05 135.575,314.125 136.2,312.2C136.25,312.075 136.275,311.95 136.325,311.825C141.9,294.725 149.025,278.45 157.5,263.125C158.45,261.425 159.4,259.725 160.375,258.05L160.375,258.025C165.15,249.8 170.325,241.825 175.85,234.175C176.025,233.95 176.175,233.725 176.35,233.475C177.3,232.175 178.275,230.85 179.25,229.575C179.525,229.225 179.8,228.875 180.05,228.5C181,227.25 181.95,226.025 182.9,224.8C183.175,224.45 183.475,224.075 183.75,223.725C186.8,219.9 189.95,216.15 193.175,212.5C193.575,212.05 193.95,211.6 194.35,211.175C195.175,210.275 196,209.375 196.825,208.475C197.425,207.8 198.05,207.15 198.65,206.5C199.425,205.675 200.2,204.85 200.975,204.05C201.675,203.325 202.35,202.625 203.05,201.9C203.8,201.125 204.55,200.375 205.325,199.6C206.1,198.825 206.85,198.075 207.625,197.325C208.35,196.625 209.075,195.925 209.8,195.225C210.7,194.35 211.625,193.5 212.55,192.65C213.15,192.1 213.75,191.525 214.35,190.975C227.825,178.675 242.425,167.7 257.975,158.2C260.625,156.575 263.325,155 266.025,153.475C266.8,153.05 267.55,152.6 268.325,152.175C269.375,151.6 270.425,151.025 271.5,150.45C272.25,150.05 273.025,149.625 273.8,149.225C274.9,148.65 276,148.075 277.1,147.525C277.8,147.175 278.525,146.8 279.25,146.45C280.425,145.875 281.575,145.3 282.75,144.725C283.325,144.45 283.925,144.175 284.5,143.9C290.8,140.9 297.225,138.15 303.775,135.625C304.05,135.525 304.325,135.4 304.6,135.3C306.175,134.7 307.75,134.1 309.35,133.525C309.625,133.425 309.9,133.325 310.175,133.225C311.825,132.625 313.475,132.05 315.15,131.5C315.225,131.475 315.325,131.45 315.4,131.425C324.475,128.375 333.725,125.775 343.15,123.625C361.35,119.5 380.125,117.15 399.25,116.725C401.3,116.675 403.375,116.65 405.45,116.65L405.975,116.65C407.925,116.65 409.85,116.675 411.8,116.725C412.15,116.725 412.475,116.75 412.825,116.75C414.625,116.8 416.45,116.85 418.25,116.95C418.775,116.975 419.275,117 419.8,117.025C421.475,117.1 423.125,117.2 424.8,117.325C425.5,117.375 426.225,117.425 426.925,117.475C428.425,117.6 429.925,117.7 431.45,117.85C432.375,117.925 433.325,118.025 434.25,118.125C435.55,118.25 436.85,118.4 438.175,118.525C439.45,118.675 440.725,118.85 442,119C443,119.125 443.975,119.25 444.975,119.375C447.275,119.7 449.575,120.05 451.875,120.425C453.975,120.775 456.075,121.15 458.175,121.55C458.825,121.675 459.5,121.8 460.15,121.925C461.65,122.225 463.175,122.525 464.675,122.85C465.775,123.075 466.85,123.325 467.925,123.575C469.225,123.875 470.5,124.15 471.8,124.475C473.025,124.775 474.25,125.075 475.475,125.375C476,125.5 476.5,125.65 477.025,125.775C481.475,126.925 485.875,128.175 490.225,129.525C509.2,135.425 527.2,143.2 544.075,152.625C545.525,153.45 546.975,154.275 548.4,155.1C548.75,155.3 549.1,155.5 549.475,155.725C550.825,156.525 552.175,157.325 553.525,158.15C553.925,158.4 554.35,158.65 554.75,158.9C556.1,159.725 557.425,160.575 558.75,161.425C559.075,161.625 559.4,161.85 559.725,162.05C565.825,166 571.75,170.175 577.475,174.55C577.7,174.725 577.925,174.875 578.15,175.05C579.45,176.05 580.725,177.05 582,178.05C582.325,178.3 582.625,178.55 582.95,178.8C584.2,179.8 585.475,180.825 586.7,181.875C586.95,182.1 587.2,182.3 587.475,182.525C594.55,188.425 601.3,194.675 607.725,201.225C607.925,201.425 608.1,201.6 608.3,201.8C609.475,203 610.65,204.225 611.8,205.45C611.975,205.65 612.175,205.85 612.35,206.05C613.55,207.325 614.725,208.6 615.9,209.9C629.2,224.625 640.95,240.7 650.9,257.85C651,258 651.075,258.175 651.175,258.325C652.125,259.95 653.05,261.6 653.95,263.225C654.35,263.925 654.725,264.65 655.1,265.375C655.7,266.5 656.325,267.625 656.9,268.775C657.325,269.6 657.775,270.45 658.2,271.275C658.725,272.3 659.25,273.325 659.75,274.35C660.2,275.25 660.65,276.15 661.075,277.075C661.525,278.025 661.975,279 662.425,279.95C662.875,280.9 663.35,281.9 663.8,282.875C664.175,283.7 664.55,284.55 664.925,285.375C666.8,289.6 668.575,293.875 670.225,298.2C670.4,298.625 670.575,299.075 670.725,299.5C671.275,300.925 671.8,302.375 672.325,303.825C672.475,304.275 672.65,304.725 672.8,305.15C673.325,306.65 673.85,308.15 674.375,309.675C674.475,310 674.6,310.325 674.7,310.675C678.275,321.45 681.25,332.475 683.525,343.7C687.425,362.95 689.375,382.8 689.15,403C689.15,403.25 689.125,403.5 689.125,403.75C689.1,405.625 689.05,407.475 688.975,409.35C688.95,410.075 688.925,410.825 688.875,411.55C688.825,413.025 688.75,414.5 688.65,415.975C688.6,416.7 688.575,417.425 688.525,418.15C688.4,420.175 688.25,422.2 688.075,424.225C688.05,424.5 688.025,424.775 688,425.05C687.825,427 687.625,428.975 687.4,430.925C687.325,431.625 687.25,432.325 687.15,433.025C686.975,434.575 686.775,436.125 686.575,437.65C686.475,438.325 686.4,439 686.3,439.675C686,441.8 685.675,443.95 685.325,446.1L685.325,446.175C685.325,446.2 685.3,446.25 685.3,446.3C684.95,448.475 684.55,450.65 684.125,452.825C683.975,453.675 683.8,454.5 683.625,455.325C683.35,456.675 683.1,458.025 682.8,459.35C682.575,460.4 682.35,461.425 682.125,462.45C681.875,463.55 681.625,464.625 681.375,465.725C681.1,466.9 680.8,468.075 680.525,469.225C680.3,470.1 680.075,470.975 679.85,471.85C679.5,473.175 679.15,474.5 678.8,475.8C678.65,476.325 678.5,476.85 678.35,477.375C676.825,482.8 675.125,488.15 673.3,493.425C666.725,512.35 658.25,530.225 648.125,546.925L648.075,547.025ZM447.4,148.4C308.45,125.475 177.2,219.525 154.275,358.475C131.35,497.425 225.4,628.675 364.35,651.6C503.3,674.525 634.55,580.475 657.475,441.525C680.4,302.575 586.35,171.325 447.4,148.4ZM528.55,443L451.525,379.8L288.75,578.15L248.3,544.95L411.075,346.6L307.65,261.725L456,209.925L613.625,339.275L528.525,442.975L528.55,443Z" style="fill:rgb(217,217,217);fill-rule:nonzero;stroke:rgb(217,217,217);stroke-width:7.49px;"/>
            </g>
            <g transform="matrix(0.15625,0,0,0.159575,340,111.17)">
                <path d="M800,460C800,442.641 788.814,427.973 773.333,422.453L773.333,153.333L786.666,153.333C794.039,153.333 799.998,147.359 799.998,140C799.998,132.641 794.039,126.667 786.666,126.667L773.333,126.667L773.333,100C773.333,92.641 767.373,86.667 760,86.667C752.627,86.667 746.667,92.641 746.667,100L746.667,126.667L733.334,126.667C725.961,126.667 720.002,132.641 720.002,140C720.002,147.359 725.961,153.333 733.334,153.333L746.667,153.333L746.667,191.186L679.041,394.08L600,190.841L600,153.333L613.333,153.333C620.706,153.333 626.666,147.359 626.666,140C626.666,132.641 620.706,126.667 613.333,126.667L600,126.667L600,100C600,92.641 594.041,86.667 586.667,86.667C579.294,86.667 573.334,92.641 573.334,100L573.334,126.667L560,126.667C552.627,126.667 546.667,132.641 546.667,140C546.667,147.359 552.627,153.333 560,153.333L573.333,153.333L573.333,190.839L493.333,396.559L413.333,190.839L413.333,153.333L426.666,153.333C434.039,153.333 439.998,147.359 439.998,140C439.998,132.641 434.039,126.667 426.666,126.667L413.333,126.667L413.333,100C413.333,92.641 407.373,86.667 400,86.667C392.627,86.667 386.667,92.641 386.667,100L386.667,126.667L373.334,126.667C365.961,126.667 360.002,132.641 360.002,140C360.002,147.359 365.961,153.333 373.334,153.333L386.667,153.333L386.667,190.839L306.667,396.559L226.667,190.839L226.667,153.333L240,153.333C247.373,153.333 253.333,147.359 253.333,140C253.333,132.641 247.373,126.667 240,126.667L226.667,126.667L226.667,100C226.667,92.641 220.708,86.667 213.334,86.667C205.961,86.667 200,92.641 200,100L200,126.667L186.667,126.667C179.294,126.667 173.334,132.641 173.334,140C173.334,147.359 179.294,153.333 186.667,153.333L200,153.333L200,190.839L120.959,394.08L53.333,191.186L53.333,153.333L66.666,153.333C74.039,153.333 79.998,147.359 79.998,140C79.998,132.641 74.039,126.667 66.666,126.667L53.333,126.667L53.333,100C53.333,92.641 47.373,86.667 40,86.667C32.627,86.667 26.667,92.641 26.667,100L26.667,126.667L13.333,126.667C5.959,126.667 0,132.641 0,140C0,147.359 5.959,153.333 13.333,153.333L26.666,153.333L26.666,422.453C11.186,427.973 0,442.641 0,460C0,482.053 17.947,500 40,500L40,633.333C17.947,633.333 0,651.28 0,673.333C0,695.386 17.947,713.333 40,713.333L760,713.333C782.053,713.333 800,695.386 800,673.333C800,651.28 782.053,633.333 760,633.333L760,500C782.053,500 800,482.053 800,460ZM746.667,275.494L746.667,420L698.508,420L746.667,275.494ZM573.333,326.667C573.333,319.308 579.292,313.334 586.666,313.334C594.039,313.334 599.998,319.308 599.998,326.667L599.998,380C599.998,387.359 594.039,393.333 586.666,393.333C579.292,393.333 573.333,387.359 573.333,380L573.333,326.667ZM386.667,326.667C386.667,319.308 392.627,313.334 400,313.334C407.373,313.334 413.333,319.308 413.333,326.667L413.333,380C413.333,387.359 407.373,393.333 400,393.333C392.627,393.333 386.667,387.359 386.667,380L386.667,326.667ZM200,326.667C200,319.308 205.959,313.334 213.333,313.334C220.706,313.334 226.666,319.308 226.666,326.667L226.666,380C226.666,387.359 220.706,393.333 213.333,393.333C205.959,393.333 200,387.359 200,380L200,326.667ZM53.333,275.494L101.494,420L53.333,420L53.333,275.494ZM773.333,673.333C773.333,680.68 767.359,686.666 760,686.666L40,686.666C32.641,686.666 26.667,680.68 26.667,673.333C26.667,665.986 32.641,660 40,660L760,660C767.359,660 773.333,665.986 773.333,673.333ZM93.333,566.667C93.333,559.308 99.292,553.334 106.666,553.334L133.333,553.334C140.706,553.334 146.666,559.308 146.666,566.667C146.666,574.027 140.706,580 133.333,580L106.667,580C99.294,580 93.333,574.027 93.333,566.667ZM173.333,566.667C173.333,559.308 179.306,553.334 186.666,553.334C194.025,553.334 199.998,559.308 199.998,566.667C199.998,574.027 194.025,580 186.666,580C179.306,580 173.333,574.027 173.333,566.667ZM226.667,566.667C226.667,559.308 232.627,553.334 240,553.334L346.667,553.334C354.041,553.334 360,559.308 360,566.667C360,574.027 354.041,580 346.667,580L240,580C232.627,580 226.667,574.027 226.667,566.667ZM386.667,566.667C386.667,559.308 392.641,553.334 400,553.334C407.359,553.334 413.333,559.308 413.333,566.667C413.333,574.027 407.359,580 400,580C392.641,580 386.667,574.027 386.667,566.667ZM440,566.667C440,559.308 445.959,553.334 453.333,553.334L560,553.334C567.373,553.334 573.333,559.308 573.333,566.667C573.333,574.027 567.373,580 560,580L453.333,580C445.959,580 440,574.027 440,566.667ZM600,566.667C600,559.308 605.973,553.334 613.333,553.334C620.692,553.334 626.666,559.308 626.666,566.667C626.666,574.027 620.692,580 613.333,580C605.973,580 600,574.027 600,566.667ZM653.333,566.667C653.333,559.308 659.292,553.334 666.666,553.334L693.333,553.334C700.706,553.334 706.666,559.308 706.666,566.667C706.666,574.027 700.706,580 693.333,580L666.666,580C659.294,580 653.333,574.027 653.333,566.667ZM40,473.333C32.641,473.333 26.667,467.347 26.667,460C26.667,452.653 32.641,446.667 40,446.667L760,446.667C767.359,446.667 773.333,452.653 773.333,460C773.333,467.347 767.359,473.333 760,473.333L40,473.333Z" style="fill:rgb(217,217,217);fill-rule:nonzero;stroke:rgb(217,217,217);stroke-width:6.33px;"/>
            </g>
            <g transform="matrix(0.10414,0,0,0.102319,445.804,685.978)">
                <path d="M402.442,39.306C954.255,471.916 428.877,678.205 265.138,497.509L201.466,555.517L280.859,634.181C620.8,917.561 1100.75,240.341 402.442,39.306ZM173.047,569.188C164.414,570.852 159.023,573.808 155.37,577.391C152.314,580.394 150.295,584.509 148.73,589.209L234.961,671.778C243.505,670.203 249.436,667.409 252.586,664.453C255.706,661.528 257.422,658.416 257.422,652.688L173.047,569.188ZM134.422,616.553L47.511,695.75C21.359,737.938 70.469,791.372 127.344,765.531L207.859,686.966L134.422,616.556L134.422,616.553Z" style="fill:rgb(217,217,217);fill-rule:nonzero;stroke:rgb(217,217,217);stroke-width:9.69px;"/>
            </g>
            <g transform="matrix(0.09375,0,0,0.09375,-785,-19256.2)">
                <path d="M11800,213320L12160,213320L11800,212760L11800,213320ZM11480,213320L11720,213320L11720,212960L11480,213320ZM12160,213400L12080,213560L11480,213560L11360,213400L12160,213400Z" style="fill:rgb(217,217,217);"/>
            </g>
        </g>
    </g>
</svg>
